<?xml version="1.0" encoding="utf-8"?>

<!-- License Agreement at http://iconmonstr.com/license/ -->

<!DOCTYPE svg PUBLIC "-//W3C//DTD SVG 1.1//EN" "http://www.w3.org/Graphics/SVG/1.1/DTD/svg11.dtd">
<svg version="1.1" xmlns="http://www.w3.org/2000/svg" xmlns:xlink="http://www.w3.org/1999/xlink" x="0px" y="0px"
	 width="512px" height="512px" viewBox="0 0 512 512" style="enable-background:new 0 0 512 512;" xml:space="preserve">
<path id="easter-21" d="M393.3,371.774c-3.89-3.319-16.379-13.914-26.152-22.129c-13.312,17.233-39.263,11.501-44.091-11.835
	c-25.48,13.143-45.867-15.021-26.285-37.284c-23.37-12.439-19.749-42.354,4.492-46.412c-18.122-27.007,3.102-43.948,25.885-64.073
	c10.427-9.212,20.284-17.913,27.594-27.234c13.411-17.141,16.73-38.533,8.684-55.842c-6.17-13.261-18.105-22.246-33.025-25.314
	c-2.146-6.379-5.666-12.339-10.361-17.351c-8.616-9.221-20.25-14.3-32.791-14.3c-14.66,0-37.157,6.974-60.996,40.184
	c-7.159,9.958-12.422,19.791-17.083,28.475c-10.427,19.455-17.971,33.512-41.576,43.436c-41.685,17.51-66.093,58.985-66.093,90.31
	c0,23,16.287,33.932,26.396,40.729c12.573,8.449,17.267,11.609,12.154,30.629c-6.505,24.023-3.487,43.117,7.326,56.697
	C106.336,395.479,116.395,462,169.102,462c29.807,0,82.062,0,185.07,0c33.713,0,56.328-22.866,56.328-51.266
	c0-14.216-6.303-27.861-17.234-38.91C393.283,371.809,393.283,371.791,393.3,371.774z M354.172,427.667H252.169
	c-20.318,0-21.073-34.267,6.252-31.718c9.641,0.889,23.932,4.928,45.155,13.109c-12.976-18.676-34.702-41.844-60.444-41.844
	c-32.992,0-46.202,33.327-37.636,60.452H168.7c-16.764,0-21.324-29.505,18.374-37.82c-28.164-34.87-11.718-61.29-11.718-78.491
	c0-27.351-17.72-39.262-29.187-46.965c-26.286-17.669,5.767-58.616,34.065-70.511c34.534-14.518,46.554-36.948,58.206-58.65
	c8.55-15.993,19.162-34.568,34.031-45.087c18.131-12.833,30.67-2.331,25.641,14.124c-5.264,17.041-24.207,45.574-34.593,59.195
	c11.728-12.456,35.397-41.575,53.806-47.015c13.479-3.982,24.274,8.357,11.399,24.836c-5.364,6.865-14.116,14.568-23.336,22.724
	c-24.543,21.66-49.237,43.839-43.537,74.082c-20.872,22.071-21.182,54.618-3.169,69.95c-12.405,22.967,4.553,65.246,48.281,64.375
	c13.63,18.574,31.937,26.639,57.133,19.061C384.666,405.303,379.787,427.667,354.172,427.667z M194.576,272.631
	c9.246,23.126-24.275,24.148-15.021-0.805c6.169-16.631,5.365-20.118-4.56-29.774c0,0-3.411-3.051-4.501-6.806
	c-2.397-8.433,3.202-17.41,12.506-20.05c9.321-2.666,18.792,2.02,21.207,10.453c1.651,5.817-1.324,11.173-5.255,15.867
	C195.204,245.992,185.808,250.719,194.576,272.631z"/>
</svg>
