<?xml version="1.0" encoding="utf-8"?>

<!-- License Agreement at http://iconmonstr.com/license/ -->

<!DOCTYPE svg PUBLIC "-//W3C//DTD SVG 1.1//EN" "http://www.w3.org/Graphics/SVG/1.1/DTD/svg11.dtd">
<svg version="1.1" xmlns="http://www.w3.org/2000/svg" xmlns:xlink="http://www.w3.org/1999/xlink" x="0px" y="0px"
	 width="512px" height="512px" viewBox="0 0 512 512" style="enable-background:new 0 0 512 512;" xml:space="preserve">
<path id="easter-19" d="M204.207,225.648c2.381,8.407-3.185,17.401-12.506,20.067c-9.304,2.64-18.776-2.045-21.207-10.469
	c-2.397-8.433,3.202-17.41,12.506-20.05C192.321,212.53,201.792,217.216,204.207,225.648z M410.5,410.734
	c0,28.399-22.615,51.266-56.328,51.266c-103.008,0-155.263,0-185.07,0c-52.707,0-62.766-66.521-21.727-81.541
	c-10.813-13.58-13.831-32.674-7.326-56.697c5.113-19.02,0.419-22.18-12.154-30.629c-10.109-6.797-26.396-17.729-26.396-40.729
	c0-31.324,24.409-72.799,66.093-90.31c23.604-9.924,31.148-23.981,41.576-43.436c4.661-8.684,9.924-18.517,17.083-28.475
	C250.091,56.974,272.588,50,287.248,50c12.541,0,24.175,5.08,32.791,14.3c4.695,5.012,8.215,10.972,10.361,17.351
	c14.92,3.068,26.855,12.053,33.025,25.314c8.047,17.309,4.728,38.701-8.684,55.842c-7.31,9.321-17.167,18.022-27.594,27.234
	c-14.217,12.565-33.697,29.773-32.926,40.218c0.369,4.937,6.438,11.508,16.631,18.03c45.096,28.86,69.705,67.09,75.07,116.713
	C401.648,376.871,410.5,393.484,410.5,410.734z M361.816,389.797c-4.929-2.851-8.113-8.064-8.482-13.865
	c-2.481-40.721-25.047-78.658-62.431-100.217c-19.606-11.316-28.759-26.664-29.966-42.824c-2.079-27.787,22.623-49.623,44.45-68.885
	c9.22-8.156,17.972-15.859,23.336-22.724c12.875-16.479,2.079-28.818-11.399-24.836c-18.408,5.44-42.078,34.56-53.806,47.015
	c10.386-13.621,29.329-42.154,34.593-59.195c5.029-16.454-7.51-26.957-25.641-14.124c-14.869,10.52-25.481,29.094-34.031,45.087
	c-11.651,21.702-23.671,44.132-58.206,58.65c-28.298,11.895-60.352,52.841-34.065,70.511c11.467,7.703,29.187,19.614,29.187,46.965
	c0,17.201-16.446,43.621,11.718,78.491c-39.698,8.315-35.138,37.82-18.374,37.82h36.798c-8.566-27.125,4.644-60.452,37.636-60.452
	c-1.375-17.301,1.442-55.792,53.638-73.662c-56.488,42.212-14.385,105.045,6.806,115.506c-21.224-8.182-35.515-12.221-45.155-13.109
	c-27.325-2.549-26.571,31.718-6.252,31.718h102.002C380.793,427.667,385.32,403.408,361.816,389.797z"/>
</svg>
